<svg xmlns="http://www.w3.org/2000/svg" width="48" height="52.003" viewBox="615.937 3494.499 48 52.003"><path d="M639.78 3546.49c-.016-.001-.032-.005-.048-.008a.951.951 0 0 1-.105-.02c-.02-.005-.04-.012-.059-.018a.783.783 0 0 1-.092-.03l-.059-.026c-.015-.007-.032-.011-.046-.019l-22.77-11.314c-.603-.3-.839-1.009-.525-1.585.314-.578 1.056-.802 1.66-.503l20.97 10.42v-23.655l-4.707-2.356v10.569c0 .413-.228.796-.599 1.008a1.277 1.277 0 0 1-1.214.028l-8.704-4.46c-.599-.307-.825-1.02-.504-1.593.322-.574 1.068-.789 1.666-.481l6.893 3.532v-9.499l-6.243-3.2v4.867c0 .65-.551 1.176-1.23 1.176-.68 0-1.232-.527-1.232-1.176v-6.356l-4.433-2.218v17.987c0 .649-.551 1.175-1.231 1.175s-1.23-.526-1.23-1.175v-19.93c0-.04.003-.078.008-.117 0-.011 0-.023.002-.035.007-.051.018-.102.031-.151l.014-.04c.012-.036.023-.073.038-.106.008-.019.018-.036.027-.053.014-.03.027-.057.044-.085.01-.018.024-.036.036-.054.017-.024.034-.05.052-.073l.046-.052.06-.064.054-.047c.022-.018.043-.037.067-.055l.061-.04.051-.035.025-.012.022-.014 22.769-11.953c.37-.194.816-.194 1.185 0l22.76 11.95.008.003c.005.003.009.006.013.007a.953.953 0 0 1 .09.054l.046.032.048.036.055.047.031.03a.6.6 0 0 1 .052.054l.029.03c.015.018.029.037.042.056l.03.037c.01.016.02.034.032.05l.029.05.023.044a.741.741 0 0 1 .044.1l.024.069c.004.013.007.029.01.044a.778.778 0 0 1 .018.066l.01.06.008.051c.003.035.004.07.005.105v26.392c0 .439-.255.841-.663 1.044l-22.77 11.313c-.015.009-.03.013-.046.02-.02.009-.039.018-.059.025-.03.013-.062.022-.093.031-.019.006-.038.013-.058.017a.977.977 0 0 1-.104.021l-.05.009a1.289 1.289 0 0 1-.156.01 1.29 1.29 0 0 1-.157-.01Zm18.146-36.47c.314.577.082 1.288-.52 1.589l-16.238 8.123v23.655l20.309-10.09v-24.972l-21.54-11.307-20.158 10.583 4.54 2.255 10.576-5.322c.357-.18.785-.18 1.143-.002l8.214 4.107c.397.199.65.587.66 1.015.01.427-.223.828-.61 1.043l-8.612 4.81 4.324 2.148 16.251-8.132c.182-.09.377-.133.569-.133.443 0 .872.229 1.092.63Zm-30.947 1.157 6.13 3.045 8.03-4.483-5.669-2.835-8.491 4.273Zm20.078 25.313c-.313-.578-.077-1.288.526-1.586l9.72-4.82c.603-.297 1.346-.073 1.659.504.312.577.076 1.287-.526 1.586l-9.72 4.818c-.18.09-.374.133-.566.133a1.24 1.24 0 0 1-1.093-.635Zm0-5.418c-.313-.576-.077-1.285.526-1.584l9.72-4.818c.603-.3 1.346-.075 1.659.501.312.578.076 1.288-.526 1.587l-9.72 4.818a1.26 1.26 0 0 1-.566.133c-.445 0-.874-.232-1.093-.637Zm4.157-7.475c-.313-.578-.077-1.287.526-1.587l5.562-2.757c.604-.299 1.346-.074 1.66.503.312.577.076 1.286-.526 1.586l-5.563 2.757c-.18.09-.375.132-.565.132a1.24 1.24 0 0 1-1.094-.634Z" fill="#fff" fill-rule="evenodd" data-name="box"></path></svg>