<svg xmlns="http://www.w3.org/2000/svg" width="46" height="53.999" viewBox="616.188 3593 46 53.999"><path d="M616.188 3623.458c0-7.88 3.826-15.202 10.236-19.586a1.059 1.059 0 0 1 1.49.303c.329.504.196 1.186-.297 1.523-5.513 3.77-8.916 9.938-9.252 16.661h10.333c.055-2.758.313-5.433.77-7.967a1.074 1.074 0 0 1 1.252-.88c.583.109.968.683.86 1.28a48.218 48.218 0 0 0-.734 7.566h16.683a48.34 48.34 0 0 0-.712-7.44c-.107-.597.28-1.169.864-1.277a1.076 1.076 0 0 1 1.248.885c.443 2.494.694 5.125.748 7.832h10.333c-.326-6.399-3.478-12.382-8.575-16.175a1.117 1.117 0 0 1-.237-1.536c.35-.491 1.021-.6 1.501-.243a23.602 23.602 0 0 1 6.9 8.194 24.057 24.057 0 0 1 2.589 10.86c0 12.981-10.318 23.542-23 23.542-12.683 0-23-10.56-23-23.542Zm16.186 12.15a28.1 28.1 0 0 0 1.134 3.285c1.578 3.754 3.647 5.909 5.679 5.909 2.032 0 4.102-2.155 5.68-5.909a28.378 28.378 0 0 0 1.135-3.289 22.782 22.782 0 0 0-6.815-1.031c-2.347 0-4.645.355-6.813 1.034Zm14.465 4.154c-.745 1.776-1.6 3.246-2.539 4.39a20.674 20.674 0 0 0 8.76-4.774 21.079 21.079 0 0 0-5.035-3.03 30.244 30.244 0 0 1-1.186 3.414Zm-21.525-.384a20.684 20.684 0 0 0 8.76 4.773c-.938-1.143-1.793-2.613-2.539-4.389a30.487 30.487 0 0 1-1.184-3.408 21.08 21.08 0 0 0-5.037 3.024Zm-1.537-1.557a23.257 23.257 0 0 1 6.03-3.614c-.66-2.964-1.042-6.24-1.109-9.65h-10.336a21.52 21.52 0 0 0 5.415 13.264Zm24.792-3.62a23.242 23.242 0 0 1 6.03 3.62 21.516 21.516 0 0 0 5.412-13.264h-10.334c-.068 3.406-.448 6.683-1.108 9.644Zm-16.722-.727c2.34-.722 4.815-1.1 7.34-1.1 2.534 0 5.006.375 7.342 1.096.59-2.737.935-5.76 1-8.913h-16.683c.065 3.155.409 6.18 1.001 8.917Zm6.903-14.397c-.324-.288-7.95-7.18-7.95-17.218 0-4.885 3.882-8.859 8.655-8.859 4.772 0 8.655 3.974 8.655 8.859 0 10.784-7.67 16.997-7.997 17.256a1.055 1.055 0 0 1-1.363-.038Zm-5.802-17.218c0 7.354 4.748 13.018 6.54 14.893 1.798-1.744 6.474-7.033 6.474-14.893 0-3.672-2.92-6.661-6.507-6.661-3.588 0-6.507 2.989-6.507 6.66Zm3.057 3.147a4.294 4.294 0 0 1-1.126-3.231 1.083 1.083 0 0 1 1.153-1.012c.591.046 1.033.575.988 1.18a2.095 2.095 0 0 0 .56 1.57 2.567 2.567 0 0 0 1.875.834c1.34 0 2.432-1.116 2.432-2.488 0-1.374-1.092-2.49-2.432-2.49a1.087 1.087 0 0 1-1.074-1.1c0-.606.48-1.098 1.074-1.098 2.525 0 4.58 2.103 4.58 4.688 0 2.584-2.054 4.687-4.58 4.687a4.66 4.66 0 0 1-3.45-1.54Z" fill="#fff" fill-rule="evenodd" data-name="globe"></path></svg>