<svg xmlns="http://www.w3.org/2000/svg" width="16.005" height="15.996" viewBox="1330.997 16.001 16.005 15.996"><path d="M1343.909 16.001h-9.819a3.096 3.096 0 0 0-3.093 3.092V28.905a3.097 3.097 0 0 0 3.093 3.092h9.819a3.097 3.097 0 0 0 3.093-3.092V19.093a3.096 3.096 0 0 0-3.093-3.092Zm1.09 1.998v2.999h-3v-3h3Zm-8.284 4.357a2.817 2.817 0 0 1 2.285-1.172c.94 0 1.771.464 2.284 1.172.333.463.533 1.03.533 1.643a2.818 2.818 0 0 1-5.634 0c0-.612.199-1.18.532-1.643ZM1345 29c0 .845-.154 1-1 1h-10c-.846 0-1-.155-1-1v-7.002h2c-.206.509-.377 1.422-.377 2.002a4.38 4.38 0 0 0 4.377 4.374 4.38 4.38 0 0 0 4.376-4.374 4.36 4.36 0 0 0-.323-1.643l1.947-.359V29Z" fill="#f9f9f9" fill-rule="evenodd" data-name="Instagram"></path></svg>