<svg xmlns="http://www.w3.org/2000/svg" width="16.006" height="16.001" viewBox="215 15.999 16.006 16.001"><path d="M219.156 26.495c2.513 3.104 8.637 6.078 10.115 5.41a2.899 2.899 0 0 0 1.732-2.78c-.064-.668-3.421-2.715-4.266-3.104-.845-.388-1.816.863-2.28 1.4-.486.517-2.345-1.056-3.148-1.853 0 0-2.112-2.414-1.626-2.931.486-.517 1.69-1.55 1.268-2.393-.424-.843-2.556-4.2-3.232-4.245a2.811 2.811 0 0 0-2.64 1.875c-.591 1.53 2.239 7.37 5.386 9.807" fill="#f58126" fill-rule="evenodd" data-name="Phone Icon"></path></svg>