<svg xmlns="http://www.w3.org/2000/svg" width="89.998" height="64" viewBox="875.002 4394 89.998 64"><path d="M925.633 4437.997v-.002c-1.413-19.74 8.365-35.85 17.165-43.646a1.377 1.377 0 0 1 1.848.015c.786.728 1.323 1.286 2.498 2.506.894.923 2.169 2.246 4.228 4.341.474.483.543 1.245.16 1.808-5.05 7.469-5.187 12.831-5.007 14.801 10.359.608 18.477 9.353 18.475 20.048-.002 11.088-8.73 20.131-19.62 20.131-10.61 0-18.915-8.411-19.747-20.002Zm-50.494 0v-.002c-1.413-19.74 8.363-35.85 17.165-43.646a1.38 1.38 0 0 1 1.848.015c.786.728 1.323 1.286 2.497 2.506.895.923 2.17 2.246 4.228 4.341.475.483.544 1.245.162 1.808-5.052 7.469-5.188 12.831-5.008 14.801 10.359.608 18.477 9.353 18.475 20.048-.001 11.088-8.73 20.131-19.62 20.131-10.61 0-18.916-8.411-19.747-20.002Z" fill="#f58126" fill-rule="evenodd" data-name="Quote Icon"></path></svg>