<svg xmlns="http://www.w3.org/2000/svg" width="800px" height="800px" viewBox="0 0 400 400" fill="none"><path d="M166.934 236.407C167.292 233.986 167.248 221.542 166.934 216.684C166.245 206.009 162.019 191.933 167.292 187.971C170.981 185.202 179.816 184.438 193.914 184.438C206.305 184.438 223.32 179.479 229.906 186.071C233.402 189.572 235.451 236.53 231.803 239.273C221.23 247.211 193.02 244.97 180.575 244.97" stroke="#000000" stroke-opacity="0.9" stroke-width="16" stroke-linecap="round" stroke-linejoin="round"></path><path d="M182.664 175.08C186.298 141.021 213.049 146.837 213.049 175.08" stroke="#000000" stroke-opacity="0.9" stroke-width="16" stroke-linecap="round" stroke-linejoin="round"></path><path d="M201.156 220.492C201.156 219.116 201.156 217.739 201.156 216.363" stroke="#000000" stroke-opacity="0.9" stroke-width="16" stroke-linecap="round" stroke-linejoin="round"></path><path d="M170.599 310.965C146.483 292.883 88.5916 197.291 106.321 146.49C107.391 143.425 171.687 117.259 200.958 76C233.645 123.049 292.808 144.613 293.617 146.49C312.887 191.225 241.237 305.186 202.191 324.733" stroke="#000000" stroke-opacity="0.9" stroke-width="16" stroke-linecap="round" stroke-linejoin="round"></path></svg>