<svg xmlns="http://www.w3.org/2000/svg" xmlns:xlink="http://www.w3.org/1999/xlink" fill="#000000" height="800px" width="800px" id="Capa_1" viewBox="0 0 493.307 493.307" xml:space="preserve"><g>	<path d="M214.034,344.188c1.89,7.822,8.827,13.286,16.871,13.286c1.371,0,2.745-0.164,4.082-0.487l240.707-58.147  c9.305-2.247,15.047-11.646,12.8-20.953L444.388,95.298c-1.889-7.823-8.827-13.286-16.872-13.286c-1.371,0-2.744,0.164-4.08,0.487  l-240.71,58.146c-4.507,1.089-8.321,3.868-10.738,7.825c-2.418,3.958-3.149,8.62-2.06,13.127L214.034,344.188z M328.473,129.099  l25.545,105.749l-42.834,10.347l-25.545-105.749L328.473,129.099z M263.282,144.847l28.246,116.927  c1.272,5.267,5.981,8.803,11.169,8.802c0.894,0,1.802-0.105,2.71-0.324l65.19-15.748c6.174-1.491,9.97-7.705,8.478-13.879  l-28.246-116.928l72.525-17.52l41.46,171.627l-229.747,55.499l-41.459-171.627L263.282,144.847z"></path>	<path d="M492.982,347.745c-1.491-6.174-7.706-9.966-13.878-8.478l-234.19,56.572c-9.971-22.427-32.225-37.305-57.495-37.305  c-1.137,0-2.276,0.04-3.414,0.102L101.6,17.506c-1.492-6.174-7.705-9.971-13.879-8.478L8.803,28.091  c-6.174,1.492-9.97,7.705-8.478,13.879c1.492,6.174,7.706,9.967,13.879,8.479l67.74-16.363l79.705,329.949  c-11.569,5.145-21.311,13.643-28.053,24.68c-8.776,14.366-11.432,31.29-7.479,47.653c6.861,28.401,32.036,48.237,61.221,48.237  c4.974,0,9.966-0.597,14.839-1.774c29.961-7.238,49.725-34.9,48.122-64.63l234.207-56.576  C490.678,360.132,494.474,353.919,492.982,347.745z M196.774,460.473c-3.106,0.751-6.282,1.131-9.439,1.131  c-18.525,0-34.506-12.599-38.864-30.638c-2.51-10.392-0.824-21.139,4.749-30.262c5.573-9.123,14.365-15.53,24.757-18.04  c3.107-0.75,6.283-1.131,9.44-1.131c18.524,0,34.504,12.598,38.862,30.637C231.462,433.622,218.226,455.29,196.774,460.473z"></path></g></svg>