<svg xmlns="http://www.w3.org/2000/svg" width="64" height="43.001" viewBox="607.5 3695 64 43.001"><path d="m670.475 3710.27-7.431-1.547-8.628-13.142a1.286 1.286 0 0 0-1.073-.58H614.37c-.71 0-1.285.578-1.285 1.292v11.158h-4.3c-.71 0-1.286.58-1.286 1.294a1.29 1.29 0 0 0 1.286 1.293h10.713a1.29 1.29 0 0 0 1.285-1.293 1.29 1.29 0 0 0-1.285-1.294h-3.842v-9.866h36.994l8.539 13.007c.187.286.48.485.812.554l6.926 1.442v9.872h-24.88v-20.607a1.29 1.29 0 0 0-1.286-1.293c-.71 0-1.285.579-1.285 1.293v20.607h-25.82v-4.955h3.842c.71 0 1.285-.58 1.285-1.293a1.29 1.29 0 0 0-1.285-1.293h-3.842v-1.202a1.29 1.29 0 0 0-1.286-1.292 1.29 1.29 0 0 0-1.285 1.292v1.202h-2.3c-.711 0-1.287.58-1.287 1.293a1.29 1.29 0 0 0 1.286 1.293h2.3V3732.26a1.29 1.29 0 0 0 1.286 1.292h8.071c.585 2.545 2.857 4.45 5.564 4.45 3.15 0 5.711-2.577 5.711-5.742 0-3.166-2.562-5.742-5.711-5.742-2.707 0-4.979 1.903-5.564 4.449h-6.785v-5.923h53.272v5.923h-6.62c-.585-2.546-2.857-4.449-5.564-4.449s-4.979 1.903-5.564 4.449h-14.153c-.71 0-1.286.578-1.286 1.293a1.29 1.29 0 0 0 1.286 1.292h14.153c.585 2.545 2.857 4.45 5.564 4.45s4.979-1.905 5.564-4.45h7.905c.71 0 1.286-.579 1.286-1.292V3711.536a1.29 1.29 0 0 0-1.025-1.266Zm-42.47 18.832c1.732 0 3.14 1.417 3.14 3.158a3.152 3.152 0 0 1-3.14 3.156 3.152 3.152 0 0 1-3.14-3.156c0-1.741 1.41-3.158 3.14-3.158Zm28.74 6.314a3.152 3.152 0 0 1-3.14-3.156c0-1.741 1.409-3.158 3.14-3.158 1.732 0 3.14 1.417 3.14 3.158a3.152 3.152 0 0 1-3.14 3.156Z" fill="#fff" fill-rule="evenodd" data-name="truck"></path></svg>