<svg xmlns="http://www.w3.org/2000/svg" width="17.992" height="14.001" viewBox="1367.003 16.997 17.992 14.001"><path d="M1384.996 18.654a7.568 7.568 0 0 1-2.12.556 3.57 3.57 0 0 0 1.623-1.955 7.59 7.59 0 0 1-2.344.858 3.767 3.767 0 0 0-2.695-1.116c-2.038 0-3.691 1.583-3.691 3.535 0 .277.033.546.096.805-3.068-.147-5.788-1.554-7.609-3.693a3.404 3.404 0 0 0-.5 1.777c0 1.227.652 2.31 1.642 2.942a3.81 3.81 0 0 1-1.671-.442v.043c0 1.713 1.272 3.142 2.96 3.467a3.84 3.84 0 0 1-1.667.061c.47 1.403 1.833 2.426 3.448 2.454a7.613 7.613 0 0 1-4.584 1.513c-.298 0-.592-.017-.88-.049a10.789 10.789 0 0 0 5.658 1.589c6.79 0 10.502-5.388 10.502-10.057 0-.154-.003-.307-.01-.457a7.324 7.324 0 0 0 1.842-1.831Z" fill="#f9f9f9" fill-rule="evenodd" data-name="Twitter"></path></svg>