<svg xmlns="http://www.w3.org/2000/svg" width="41.998" height="50" viewBox="618.095 3403.999 41.998 50"><path d="M627.108 3448.18c-3.001-3.54-4.7-8.19-4.817-13.149-1.474-.235-2.75-1.034-3.515-2.238-.92-1.45-.908-3.173.033-4.612l2.76-4.222-.94-1.473c-2.134-3.345-1.508-7.587 1.522-10.315l.096-.086c3.234-2.912 7.467-4.596 12.002-4.795.49-1.884 2.372-3.29 4.61-3.29h.469c2.239 0 4.119 1.406 4.61 3.289 4.536.2 8.768 1.884 12.001 4.796l.097.086c3.03 2.728 3.656 6.97 1.521 10.315l-.94 1.473 2.762 4.222c.94 1.44.952 3.162.032 4.612-.92 1.447-2.576 2.313-4.429 2.313h-30.406c.273 9.341 6.68 16.84 14.518 16.84 6.914 0 12.908-5.914 14.252-14.062.092-.56.672-.948 1.295-.865.624.084 1.054.606.961 1.167-1.51 9.163-8.453 15.813-16.508 15.813-4.55 0-8.807-2.067-11.986-5.819Zm-6.334-18.957a2.298 2.298 0 0 0-.018 2.55c.509.8 1.424 1.279 2.45 1.279h31.776c1.025 0 1.94-.479 2.45-1.28a2.298 2.298 0 0 0-.019-2.548l-3.097-4.737-.015-.025c-.01-.02-.022-.038-.032-.057a.95.95 0 0 1-.021-.044c-.007-.016-.014-.03-.02-.047a.534.534 0 0 1-.02-.053.416.416 0 0 1-.013-.04l-.015-.058-.007-.04a.611.611 0 0 1-.008-.057c-.002-.015-.004-.028-.004-.044l-.001-.051v-.05a1.03 1.03 0 0 1 .01-.1l.009-.042a.874.874 0 0 1 .013-.057l.013-.04a.834.834 0 0 1 .058-.146l.033-.057.014-.025.012-.017 1.258-1.973c1.622-2.543 1.147-5.767-1.157-7.84l-.096-.087c-3.018-2.718-7.032-4.214-11.3-4.214h-7.866c-4.269 0-8.282 1.496-11.3 4.214l-.097.087c-2.303 2.073-2.778 5.297-1.156 7.84l.94 1.474h24.061c.63 0 1.142.46 1.142 1.029 0 .566-.511 1.026-1.142 1.026h-24.068l-2.767 4.23Zm15.892-21.953h4.855c-.405-.722-1.237-1.218-2.193-1.218h-.468c-.958 0-1.789.496-2.194 1.218Zm-4.314 36.458c0-.566.511-1.027 1.141-1.027h11.201c.63 0 1.14.46 1.14 1.027 0 3.54-3.023 6.419-6.74 6.419s-6.742-2.88-6.742-6.42Zm6.742 4.364c2.098 0 3.862-1.424 4.335-3.336h-8.67c.473 1.912 2.237 3.336 4.335 3.336Zm5.1-9.623a.984.984 0 0 1-.336-.726.98.98 0 0 1 .335-.726c.213-.191.506-.3.806-.3.3 0 .595.109.807.3.211.19.333.455.333.726 0 .27-.122.534-.333.726a1.216 1.216 0 0 1-.807.302c-.3 0-.593-.11-.806-.302Zm-11.005.3c-.302 0-.595-.11-.808-.3a.987.987 0 0 1-.333-.726c0-.271.121-.536.333-.727.213-.19.506-.3.808-.3.299 0 .594.11.805.3a.984.984 0 0 1 .335.727c0 .27-.121.534-.335.726-.211.191-.504.3-.802.3h-.003Z" fill="#fff" fill-rule="evenodd" data-name="user"></path></svg>