<svg xmlns="http://www.w3.org/2000/svg" xmlns:xlink="http://www.w3.org/1999/xlink" x="0px" y="0px" width="64px" height="64px" viewBox="0 0 64 64" stroke-width="2"><g stroke-width="2" transform="translate(0.5, 0.5)"><path d="M41.7,41.336A66.388,66.388,0,0,0,28,40C16.86,40,9.506,42.331,5.547,44.087A5.977,5.977,0,0,0,2,49.567V60H34" fill="none" stroke="#000000" stroke-miterlimit="10" stroke-width="2" data-cap="butt" stroke-linecap="butt" stroke-linejoin="miter"></path><path d="M14,16a14,14,0,0,1,28,0c0,7.732-6.268,16-14,16S14,23.732,14,16Z" fill="none" stroke="#000000" stroke-linecap="square" stroke-miterlimit="10" stroke-width="2" stroke-linejoin="miter"></path><circle cx="50" cy="50" r="12" fill="none" stroke="#000000" stroke-linecap="square" stroke-miterlimit="10" stroke-width="2" data-color="color-2" stroke-linejoin="miter"></circle><polyline points="50 45 55 50.015 50 55" fill="none" stroke="#000000" stroke-linecap="square" stroke-miterlimit="10" stroke-width="2" data-color="color-2" stroke-linejoin="miter"></polyline><line x1="44" y1="49.981" x2="55" y2="50.015" fill="none" stroke="#000000" stroke-miterlimit="10" stroke-width="2" data-cap="butt" data-color="color-2" stroke-linecap="butt" stroke-linejoin="miter"></line></g></svg>