<svg xmlns="http://www.w3.org/2000/svg" xmlns:xlink="http://www.w3.org/1999/xlink" x="0px" y="0px" width="64px" height="64px" viewBox="0 0 64 64" stroke-width="2"><g stroke-width="2" transform="translate(0.5, 0.5)"><line data-color="color-2" fill="none" stroke="#000000" stroke-width="2" stroke-linecap="square" stroke-miterlimit="10" x1="28" y1="36" x2="28" y2="50" stroke-linejoin="miter"></line> <line data-color="color-2" fill="none" stroke="#000000" stroke-width="2" stroke-linecap="square" stroke-miterlimit="10" x1="36" y1="36" x2="36" y2="50" stroke-linejoin="miter"></line> <line data-color="color-2" fill="none" stroke="#000000" stroke-width="2" stroke-linecap="square" stroke-miterlimit="10" x1="44" y1="36" x2="44" y2="50" stroke-linejoin="miter"></line> <line fill="none" stroke="#000000" stroke-width="2" stroke-linecap="square" stroke-miterlimit="10" x1="18" y1="28" x2="18" y2="38" stroke-linejoin="miter"></line> <path fill="none" stroke="#000000" stroke-width="2" stroke-linecap="square" stroke-miterlimit="10" d="M50.29,25.715L28,22V7 c0-2.761-2.239-5-5-5l0,0c-2.761,0-5,2.239-5,5v21h-6c-2.209,0-4,1.791-4,4v12c0,8.5,10.149,12.875,10.149,18H53l3.895-27.262 C57.509,30.435,54.577,26.429,50.29,25.715z" stroke-linejoin="miter"></path></g></svg>